<?xml version="1.0" encoding="UTF-8"?>
<svg id="Layer_1" data-name="Layer 1" xmlns="http://www.w3.org/2000/svg" viewBox="0 0 528 80.32">
  <path d="M72.8,17.22c-.2-.1-.4-.3-.5-.2-.1,0-.3.3-.2.6v.5c.1.6,0,1-.7,1.1-.2,0-.4.2-.3.4.2.4.2.9-.3.8-.5,0-.3.7-.9.5-.4-.1-.7-.3-1.1-.4-.6-.3-1-1-1.6-.9-.6,0-.9-.2-1.4-.4-.3-.2-.6-.4-.9-.6-.1,0-.3-.3-.4,0-.3.7-.7,1.4-1,2.2-.1.3-.2.6-.6.7-.4,0-.7,0-1-.4-.4-.6-.9-1-1.5-1.4-.3-.2-.2-.7-.7-.6-.6,0-1-.3-1.5-.5-.6-.3-.9-.8-1.3-1.2-.2-.2-.4-.2-.6,0-.2.1.2.2,0,.4-.3-.1-.5-.3-.7-.4-.8-.4-1.1-1.3-2-1.6-.2,0-.4-.3-.7,0-.3.2-.2.4,0,.6,0,0,.3.3,0,.4-.1,0-.3.1-.3,0-.1-.5-1.3-.4-.8-1.3,0,0,0-.2-.1-.2-.8,0-1.3-.6-2.1-.7.3.3.8.5.5.9-.1.2-.6-.1-.8-.4-.4-.6-1.1-.7-1.8-.9.2.4.4.5.7.7.7.5,1.5.7,2.1,1.2,1.3.9,2.4,1.9,3.6,3,1.3,1.3,2.9,2.3,4.1,3.8,1.8,2.2,3.4,4.6,4.8,7.1.9,1.6,1.2,3.3,1.6,5.1.2,1,.3,2,.3,3,0,1.2-.2,2.5-.5,3.7-.3,1.6-.8,3.2-2.1,4.3-1.3,1.2-2.6,2.3-4.1,3.2-.8.5-1.7,1.2-2.6,1.3-1.2,0-2,.8-3,1.2s-1.9.7-2.9,1c-.4.1-.9.4-1.3.2-.8-.4-1.2,0-1.5.7,0,.2-.2.3,0,.5.1.3-.2.3-.4.4-.1,0-.3,0-.4-.1-.1-.3.3-.1.3-.3s.2-.3.2-.5c-.5-.1-1.1-.1-1.7,0-.5,0-.4-.7-.9-.5-.7.3-1.5,0-2.2,0s-1.4.2-1.9-.4c-.1-.1-.4,0-.5,0-1.5.3-1.9.2-2.7-1.1.1-.1.4,0,.5-.2q-.7-.3-.7-1.4c0-.2,0-.4-.2-.4h-.7c-.3,1-1.2.6-1.9.8.3.3.6.6.4,1-.1.4-.5.4-.8.5-.6.2-1.1,0-1.7,0-.7,0-1.1-.4-1.1-1,0-.5.4-.9,1.1-.8.3,0,.7.1,1.1-.2.8-.8,1.7-1.1,2.8-.9.4,0,.6,0,.6-.3-.3-.6.2-.5.5-.5.1,0,.4,0,.3-.2,0-.2-.2-.3-.4-.3h-.5c-1.4-.1-2.6,1-4,.9-1,0-1.7.9-2.7.7-.2,0-.5-.3-.8,0,0,0,.1.1.2.2.1,0,.4.1.4.3s-.3,0-.4.1c-.6.1-.9.9-1.6,1h0c.3.7-.3.6-.7.7,0,.4.5.5.6.9-.6-.2-.9-.7-1.2-1.1-.4-.5-.6-1.4-.6-2.1,0-.8.3-.9.9-.5s1,.2,1.2-.4c0-.1.1-.1.2-.2.5-.2,1-.4,1.4-.5.8,0,.2-1.1.9-1.1v-.3q0-.2-.2-.3c-.3,0-.6-.2-.9,0-.9.2-1.6,1.1-2.6.9h-.1c-.7.7-1.7.7-2.4,1.1-.3.2-1,.1-1.1.7,0,.6-.4.4-.7.2-1-.7-1.1-.7-1.5.5-.2.5-.3.3-.5.2-1-.4-1-.7-.4-1.5.2-.3.4-.5.7-.7.1,0,.2-.3.3-.2.6.4,1.2,0,2,.1-.4-.5-.2-.8-.1-1.1.2-.9,1-.8,1.6-1.1.4-.2.6-.4.5-.9-.2-.5-.8-.6-1-.3-.5.5-1.1.2-1.6.3-.2,0-.8-.2-.4.4,0,0,0,.1-.1.2-.8.7-1.8,1.1-2.7,1.5-.3.1-.7,0-1,.4s.1.7,0,1.1c-.2-.2-.4-.4-.6-.5-.6-.4-1.3-.3-1.3.1,0,.7-.4.5-.7.3-.7-.4-1.3-.8-2-1.2l-.2-.2c0-.1.1-.2.3-.2.9-.2,1.6,0,2.2.8-.2-1.2,0-1.6,1.3-1.7.5,0,1.1.1.8-.7,0-.1.2-.4.3-.5.5-.2.6-.8,1.1-1.1.3-.2.4-.7.1-1-.2-.3-.7-.5-1-.1-.5.6-1.2.8-1.9.6,0,0-.3,0-.2.1.3.6-.2.6-.4.6-.7.2-1.5.3-2.2,0-.1,0-.4-.2-.4,0-.1.8-.7.5-1.1.5-.5,0-1.6-.9-1.4-1.2.2-.4,0-1.4,1-1,0,0,.3-.2.5-.3.8-.5,1.7-.9,2.8-.3-.5-.4-.3-.7,0-1,.2-.3,0-.5-.2-.6-.5,0-.8-.5-1.4.2-.8.8-2,.8-3.2.4-.4-.2-.9-.3-1.3-.3-.5,0-.5.6-.8.9-1.1-1.7-1.3-3.7-1.8-5.6-.2-.6-.4-1.3-.3-1.9.1-1-.6-2.1.3-3.1v-.2c-.7,0-.3-.4-.3-.6,0-.7.1-1.4-.2-2.2-.3.5-.4.9-.5,1.3-.5,1.6-.9,3.3-1.6,4.8-.3.5-.4,1.2-.9,1.6-2,1.5-2.1,3.6-2.2,5.5,0,.9,0,1.9.2,2.8.4,2.4,1,4.8,2.2,7,.3.6.7,1,1.4,1.1.4,0,.5.3.5.6-.3,0-.4-.4-.7-.2,0,.8.6,1.4,1.1,1.9.3.3.7.5.8.9.4.8,1,1.3,1.9,1.3-.6.6,0,.8.2,1.1.6.8,1.1.8,1.7,0,.3-.4.6-.6.8,0,.2.5.5.9.9,1.2.3.3,1,.4.1.8-.1,0,0,.2,0,.4.2.4,1.6.7,1.9.3.2-.2.2-.5.6-.3.4.3.9,1,.8,1.1-.6.9.4.8.6.8.4.1.9.3,1-.5.1-.8.5-.9,1.3-.6.2,0,.5.2.7.2.4.1.7.2.5.8-.3.7.1,1.2.9,1.4.9.3,1.4,0,1.6-.6.1-.3.3-.4.6-.3.8.3,1.8,0,2.2-.6.1-.2,0-.6.4-.4.3.2,0,.5-.1.7-.4.9-.3,1.2.6,1.8,0,0,.2,0,.2.2-.3.8.4.7.7.8,1.2,0,2.4,0,3.4-1,.3-.3.6-.4,1-.2s.7.1,1.2,0c.4,0,1-.4,1.1.5,0,.3.5.5.9.4.5,0,1-.1,1.4-.3,1.4-.8,2.9-1.1,4.5-1,.7,0,1.4-.2,2.1-.3.8-.2,1.6-.2,2.4,0,.7.3,1.3.2,1.8-.2.3-.3.5-.3.8.1.2.3.6.3.9.2.2,0,.5-.2.4-.5-.2-.5,0-.5.4-.7.8-.2,2.1,0,2.8.5.1,0,.2.1.4,0,.1-.1.1-.2,0-.3-.6-.5,0-.5.2-.6h.6c.4,0,.6-.3.6-.6s-.3-.4-.6-.4h-.7c.8-.7,1.6-.7,2.4-.4,0,.3-.3.4-.4.7-.3.6.1.8.5.8s.9-.1,1.1-.7c.1-.4.4-.7.8-.9.3-.1.4-.4.6-.7.3-.4.6-.9,1.2-.9-.3.2-.5.4-.3.9s.6.7.9.6c.6-.2,1.4-.2,1.8-.9.3-.4.4-.8,1-.7.3,0,.8-.2.9-.7,0-.2.1-.3.3-.4,1.6-.2,2.1-2,3.6-2.4.2,0,.2-.3.4-.5.1-.2.2-.5.4-.5,1.1-.3,1.2-1.2,1.3-2.1,0-.4.1-.9.8-.8.5,0,.7-.3.9-.7.4-.9.9-1.8,1.2-2.7.3-1.1.8-2.2,1-3.4.3-1.7.3-3.4.5-5,.2-1,.5-2.1,1.5-2.8.5-.3.6-.8.8-1.3.3-1,.3-2,.7-2.9.8-1.6.9-3.3,1-5.1,0-1.3-.2-2.6-.5-3.9-.5-1.9-.8-4-2.8-5.2h0v.4Z"/>
  <path d="M28.8,8.52c-.1.1-.3.2-.4,0-.2-.2-.3-.3-.4-.5,0-.2,0-.4-.4-.4s-.4.3-.4.5c-.1.7-.3,1.4-.2,2.1.1.5-.1.9.1,1.4.8,1.6,3.9,1.6,5,.8.4-.3.5-.6,0-.9-.4-.3-.5-.7-.3-1.2.4.3.7.7,1,1.1.8,1.1,1.9,1.6,3.3,1.8,2.2.3,4-.8,5.9-1.7.3-.1.6,0,.8-.4.8-1.3,1.7-2.6,1.6-4.1-.1-1.7.4-3.3.9-4.9.2-.8,0-1.6-.8-2-.4-.2-.8-.2-1,.3-.2.6-.6.8-1.3.6-1.1-.3-2.2-.4-3.2,0-1.9.6-3.7,1.4-5.2,2.7-.6.5-1.3.9-1.9,1.3-.4.2-1,.2-1.3,0s.2-.5.2-.8.1-.7-.4-.8-1-.2-1.3.1c-.2.3-.8.7-.3,1.3.1.2,0,.5-.4.6-.2,0-.4.1-.5.2-.5.1-.2.8-.6.9,0,.2.2.2.4.2.4,0,.6-.1.7-.5.2-.6.8-.6,1.4-.6-.1.2-.3.5-.3.6.2.3.5,0,.7,0,.9-.1,1.1,0,1.1.9,0,.2,0,.4-.2.6-.1-.3-1,0-.5-.8-.4-.2-.9,0-1.2.2-.4.2-1.1.3-.5,1,.2.2,0,.3-.1.4h0Z"/>
  <path d="M22.2,11.82c-.2,0-.6.3-.3.7.2.3.1.7,0,1-.1.6.1.6.5.4.5-.3,1-.4,1.6,0s1.4.2,2.1-.1c.4-.2.7-.5.4-1-.3-.8,0-1.7-.4-2.4.7-.7-.2-1.6.1-2.4,0-.3-.2-.5-.5-.4-.5.2-1.1.4-1.4.9,0,0-.2,0,0,.1.8.3.2,1,.4,1.5.3.6-.2,1-.7,1.1-.4,0-.7.1-1,.3v.2c.3,0,.5-.2.8-.3.2,0,.4-.1.4,0,0,.4.2.7-.1,1.1-.3.4-.8.5-1.3.4-.6,0-.3-.4-.4-.7,0-.3-.2-.6-.4-.5h0l.2.1Z"/>
  <path d="M25.7,5.62c.6,0,1.4-.7,1.3-1.2,0-.3-.3-.5-.7-.5-.5,0-1.1.6-1.1,1.2,0,.2,0,.6.4.6l.1-.1Z"/>
  <path d="M20.4,14.92c.4-.1.6-.4.7-.8-.4-.1.3-1.2-.7-.8-.5.2-.9.8-1.2,1.3,0,0-.2,0,0,.2.4.2.7.4,1.2.2v-.1Z"/>
  <path d="M40,49.72s.3-.2.1-.3c-.3-.3-.8-.1-1.2-.1-.2,0-.3,0-.5.2h0c0,.3.3.2.5.3-.2.2-.4.2-.5.4,0,0,0,.2.2.2.8.3,1.1-.3,1.5-.7h-.1Z"/>
  <path d="M21.4,13.12c0-.3-.6-.4-.3-.8,0-.1-.3-.5-.6-.5s-.2.2-.2.5c0,1,.6.7,1.2.8h-.1Z"/>
  <path d="M24.3,63.42c-.6-.5-1.3-.3-1.9-.3-.1,0-.2,0-.2.2,0,.1.1.3.2.3.6,0,1.2.4,1.9-.2Z"/>
  <path d="M21.2,6.42c.3-.2.7-.4,1.2-.8-.7-.2-1.2,0-1.6.3-.1.1-.4.3-.3.5s.4.1.7,0Z"/>
  <path d="M11.7,38.22c.1,0,.3-.2.3-.3-.2-.4-.4-.8-.8-1-.2,0-.3,0-.2.3.2.4.3.9.8,1h-.1Z"/>
  <path d="M9.6,35.12h.2c0-.5-.2-.9-.6-1.1h-.2c0,.4.3,1.1.5,1.2l.1-.1Z"/>
  <path d="M26.5,6.52c-.7-.3-1.2-.2-1.4.2.5.2.9-.3,1.4-.2Z"/>
  <path d="M42.2,49.02c-.7-.4-1.1-.4-2.1-.2.7.3,1.3.1,2.1.2Z"/>
  <path d="M42.8,50.02c.4.2.7.2,1.3,0-.6-.2-.9-.2-1.3,0Z"/>
  <path d="M45.2,12.62c-.2,0-.4,0-.3.2,0,.2.2.3.4.4,0,0,.2-.1.3-.2-.1-.2-.2-.3-.4-.4Z"/>
  <path d="M21.5,43.42c.2.2.4.3.6.3,0,0,.1-.2,0-.2-.1-.2-.3-.4-.7-.1h.1Z"/>
  <path d="M38.2,52.12v.2c.2.1.4,0,.5-.2h-.6.1Z"/>
  <path d="M43.2,50.62c.2.1.4,0,.5-.2-.2,0-.4-.2-.6,0v.1l.1.1Z"/>
  <path d="M11.9,42.72c0,.2.1.2.2.3.1,0,.2,0,.3-.2,0,0-.1-.2-.2-.2h-.2l-.1.1Z"/>
  <path d="M22.3,6.92c0-.1,0-.2-.1-.3-.1,0-.2,0-.2.2,0,.1,0,.2.1.2s.2,0,.2-.2v.1Z"/>
  <path d="M23.4,8.82v-.2c-.2,0-.3.1-.5.3.2,0,.4,0,.6-.1h-.1Z"/>
  <path d="M37.2,49.22c0,.2.3.1.6,0-.1-.1-.2-.1-.3-.2-.1,0-.3-.2-.3,0v.2Z"/>
  <path d="M46.6,75.62c-1.3,0-2.6-.3-3.9-.2-1.5.1-2.9,0-4.3-.2-1.7-.3-3.4-.5-5.1-.7-.5,0-1,.2-1.4.1-1.2-.2-2.3,0-3.1,1-1,1.1-2.2,1.1-3.3.5-1.4-.7-2.8-.8-4.3-.7-.5,0-1.2,0-1.5.9,2.2.4,4.2.7,6.3,1,.8.1,1.4.2,1.8,1.1.6,1.2,1.8,1.8,3.1,1.9,1.2,0,2.4-.2,3.6-.3,1,0,2-.2,3-.3,1.3-.2,2.5-.6,3.8-.8,1.3-.2,2.7-.4,4.1-.5.9,0,1.7,0,2.6.1.3,0,.7.2.8,0,.3-.4.8-.8.4-1.4-.6-.8-1.2-1.5-2.4-1.5h-.2Z"/>
  <path d="M72.8,17.22c-.2-.1-.4-.3-.5-.2-.1,0-.3.3-.2.6v.5c.1.6,0,1-.7,1.1-.2,0-.4.2-.3.4.2.4.2.9-.3.8-.5,0-.3.7-.9.5-.4-.1-.7-.3-1.1-.4-.6-.3-1-1-1.6-.9-.6,0-.9-.2-1.4-.4-.3-.2-.6-.4-.9-.6-.1,0-.3-.3-.4,0-.3.7-.7,1.4-1,2.2-.1.3-.2.6-.6.7-.4,0-.7,0-1-.4-.4-.6-.9-1-1.5-1.4-.3-.2-.2-.7-.7-.6-.6,0-1-.3-1.5-.5-.6-.3-.9-.8-1.3-1.2-.2-.2-.4-.2-.6,0-.2.1.2.2,0,.4-.3-.1-.5-.3-.7-.4-.8-.4-1.1-1.3-2-1.6-.2,0-.4-.3-.7,0-.3.2-.2.4,0,.6,0,0,.3.3,0,.4-.1,0-.3.1-.3,0-.1-.5-1.3-.4-.8-1.3,0,0,0-.2-.1-.2-.8,0-1.3-.6-2.1-.7.3.3.8.5.5.9-.1.2-.6-.1-.8-.4-.4-.6-1.1-.7-1.8-.9.2.4.4.5.7.7.7.5,1.5.7,2.1,1.2,1.3.9,2.4,1.9,3.6,3,1.3,1.3,2.9,2.3,4.1,3.8,1.8,2.2,3.4,4.6,4.8,7.1.9,1.6,1.2,3.3,1.6,5.1.2,1,.3,2,.3,3,0,1.2-.2,2.5-.5,3.7-.3,1.6-.8,3.2-2.1,4.3-1.3,1.2-2.6,2.3-4.1,3.2-.8.5-1.7,1.2-2.6,1.3-1.2,0-2,.8-3,1.2s-1.9.7-2.9,1c-.4.1-.9.4-1.3.2-.8-.4-1.2,0-1.5.7,0,.2-.2.3,0,.5.1.3-.2.3-.4.4-.1,0-.3,0-.4-.1-.1-.3.3-.1.3-.3s.2-.3.2-.5c-.5-.1-1.1-.1-1.7,0-.5,0-.4-.7-.9-.5-.7.3-1.5,0-2.2,0s-1.4.2-1.9-.4c-.1-.1-.4,0-.5,0-1.5.3-1.9.2-2.7-1.1.1-.1.4,0,.5-.2q-.7-.3-.7-1.4c0-.2,0-.4-.2-.4h-.7c-.3,1-1.2.6-1.9.8.3.3.6.6.4,1-.1.4-.5.4-.8.5-.6.2-1.1,0-1.7,0-.7,0-1.1-.4-1.1-1,0-.5.4-.9,1.1-.8.3,0,.7.1,1.1-.2.8-.8,1.7-1.1,2.8-.9.4,0,.6,0,.6-.3-.3-.6.2-.5.5-.5.1,0,.4,0,.3-.2,0-.2-.2-.3-.4-.3h-.5c-1.4-.1-2.6,1-4,.9-1,0-1.7.9-2.7.7-.2,0-.5-.3-.8,0,0,0,.1.1.2.2.1,0,.4.1.4.3s-.3,0-.4.1c-.6.1-.9.9-1.6,1h0c.3.7-.3.6-.7.7,0,.4.5.5.6.9-.6-.2-.9-.7-1.2-1.1-.4-.5-.6-1.4-.6-2.1,0-.8.3-.9.9-.5s1,.2,1.2-.4c0-.1.1-.1.2-.2.5-.2,1-.4,1.4-.5.8,0,.2-1.1.9-1.1v-.3q0-.2-.2-.3c-.3,0-.6-.2-.9,0-.9.2-1.6,1.1-2.6.9h-.1c-.7.7-1.7.7-2.4,1.1-.3.2-1,.1-1.1.7,0,.6-.4.4-.7.2-1-.7-1.1-.7-1.5.5-.2.5-.3.3-.5.2-1-.4-1-.7-.4-1.5.2-.3.4-.5.7-.7.1,0,.2-.3.3-.2.6.4,1.2,0,2,.1-.4-.5-.2-.8-.1-1.1.2-.9,1-.8,1.6-1.1.4-.2.6-.4.5-.9-.2-.5-.8-.6-1-.3-.5.5-1.1.2-1.6.3-.2,0-.8-.2-.4.4,0,0,0,.1-.1.2-.8.7-1.8,1.1-2.7,1.5-.3.1-.7,0-1,.4s.1.7,0,1.1c-.2-.2-.4-.4-.6-.5-.6-.4-1.3-.3-1.3.1,0,.7-.4.5-.7.3-.7-.4-1.3-.8-2-1.2l-.2-.2c0-.1.1-.2.3-.2.9-.2,1.6,0,2.2.8-.2-1.2,0-1.6,1.3-1.7.5,0,1.1.1.8-.7,0-.1.2-.4.3-.5.5-.2.6-.8,1.1-1.1.3-.2.4-.7.1-1-.2-.3-.7-.5-1-.1-.5.6-1.2.8-1.9.6,0,0-.3,0-.2.1.3.6-.2.6-.4.6-.7.2-1.5.3-2.2,0-.1,0-.4-.2-.4,0-.1.8-.7.5-1.1.5-.5,0-1.6-.9-1.4-1.2.2-.4,0-1.4,1-1,0,0,.3-.2.5-.3.8-.5,1.7-.9,2.8-.3-.5-.4-.3-.7,0-1,.2-.3,0-.5-.2-.6-.5,0-.8-.5-1.4.2-.8.8-2,.8-3.2.4-.4-.2-.9-.3-1.3-.3-.5,0-.5.6-.8.9-1.1-1.7-1.3-3.7-1.8-5.6-.2-.6-.4-1.3-.3-1.9.1-1-.6-2.1.3-3.1v-.2c-.7,0-.3-.4-.3-.6,0-.7.1-1.4-.2-2.2-.3.5-.4.9-.5,1.3-.5,1.6-.9,3.3-1.6,4.8-.3.5-.4,1.2-.9,1.6-2,1.5-2.1,3.6-2.2,5.5,0,.9,0,1.9.2,2.8.4,2.4,1,4.8,2.2,7,.3.6.7,1,1.4,1.1.4,0,.5.3.5.6-.3,0-.4-.4-.7-.2,0,.8.6,1.4,1.1,1.9.3.3.7.5.8.9.4.8,1,1.3,1.9,1.3-.6.6,0,.8.2,1.1.6.8,1.1.8,1.7,0,.3-.4.6-.6.8,0,.2.5.5.9.9,1.2.3.3,1,.4.1.8-.1,0,0,.2,0,.4.2.4,1.6.7,1.9.3.2-.2.2-.5.6-.3.4.3.9,1,.8,1.1-.6.9.4.8.6.8.4.1.9.3,1-.5.1-.8.5-.9,1.3-.6.2,0,.5.2.7.2.4.1.7.2.5.8-.3.7.1,1.2.9,1.4.9.3,1.4,0,1.6-.6.1-.3.3-.4.6-.3.8.3,1.8,0,2.2-.6.1-.2,0-.6.4-.4.3.2,0,.5-.1.7-.4.9-.3,1.2.6,1.8,0,0,.2,0,.2.2-.3.8.4.7.7.8,1.2,0,2.4,0,3.4-1,.3-.3.6-.4,1-.2s.7.1,1.2,0c.4,0,1-.4,1.1.5,0,.3.5.5.9.4.5,0,1-.1,1.4-.3,1.4-.8,2.9-1.1,4.5-1,.7,0,1.4-.2,2.1-.3.8-.2,1.6-.2,2.4,0,.7.3,1.3.2,1.8-.2.3-.3.5-.3.8.1.2.3.6.3.9.2.2,0,.5-.2.4-.5-.2-.5,0-.5.4-.7.8-.2,2.1,0,2.8.5.1,0,.2.1.4,0,.1-.1.1-.2,0-.3-.6-.5,0-.5.2-.6h.6c.4,0,.6-.3.6-.6s-.3-.4-.6-.4h-.7c.8-.7,1.6-.7,2.4-.4,0,.3-.3.4-.4.7-.3.6.1.8.5.8s.9-.1,1.1-.7c.1-.4.4-.7.8-.9.3-.1.4-.4.6-.7.3-.4.6-.9,1.2-.9-.3.2-.5.4-.3.9s.6.7.9.6c.6-.2,1.4-.2,1.8-.9.3-.4.4-.8,1-.7.3,0,.8-.2.9-.7,0-.2.1-.3.3-.4,1.6-.2,2.1-2,3.6-2.4.2,0,.2-.3.4-.5.1-.2.2-.5.4-.5,1.1-.3,1.2-1.2,1.3-2.1,0-.4.1-.9.8-.8.5,0,.7-.3.9-.7.4-.9.9-1.8,1.2-2.7.3-1.1.8-2.2,1-3.4.3-1.7.3-3.4.5-5,.2-1,.5-2.1,1.5-2.8.5-.3.6-.8.8-1.3.3-1,.3-2,.7-2.9.8-1.6.9-3.3,1-5.1,0-1.3-.2-2.6-.5-3.9-.5-1.9-.8-4-2.8-5.2h0v.4Z"/>
  <path d="M28.8,8.52c-.1.1-.3.2-.4,0-.2-.2-.3-.3-.4-.5,0-.2,0-.4-.4-.4s-.4.3-.4.5c-.1.7-.3,1.4-.2,2.1.1.5-.1.9.1,1.4.8,1.6,3.9,1.6,5,.8.4-.3.5-.6,0-.9-.4-.3-.5-.7-.3-1.2.4.3.7.7,1,1.1.8,1.1,1.9,1.6,3.3,1.8,2.2.3,4-.8,5.9-1.7.3-.1.6,0,.8-.4.8-1.3,1.7-2.6,1.6-4.1-.1-1.7.4-3.3.9-4.9.2-.8,0-1.6-.8-2-.4-.2-.8-.2-1,.3-.2.6-.6.8-1.3.6-1.1-.3-2.2-.4-3.2,0-1.9.6-3.7,1.4-5.2,2.7-.6.5-1.3.9-1.9,1.3-.4.2-1,.2-1.3,0s.2-.5.2-.8.1-.7-.4-.8-1-.2-1.3.1c-.2.3-.8.7-.3,1.3.1.2,0,.5-.4.6-.2,0-.4.1-.5.2-.5.1-.2.8-.6.9,0,.2.2.2.4.2.4,0,.6-.1.7-.5.2-.6.8-.6,1.4-.6-.1.2-.3.5-.3.6.2.3.5,0,.7,0,.9-.1,1.1,0,1.1.9,0,.2,0,.4-.2.6-.1-.3-1,0-.5-.8-.4-.2-.9,0-1.2.2-.4.2-1.1.3-.5,1,.2.2,0,.3-.1.4h0Z"/>
  <path d="M22.2,11.82c-.2,0-.6.3-.3.7.2.3.1.7,0,1-.1.6.1.6.5.4.5-.3,1-.4,1.6,0s1.4.2,2.1-.1c.4-.2.7-.5.4-1-.3-.8,0-1.7-.4-2.4.7-.7-.2-1.6.1-2.4,0-.3-.2-.5-.5-.4-.5.2-1.1.4-1.4.9,0,0-.2,0,0,.1.8.3.2,1,.4,1.5.3.6-.2,1-.7,1.1-.4,0-.7.1-1,.3v.2c.3,0,.5-.2.8-.3.2,0,.4-.1.4,0,0,.4.2.7-.1,1.1-.3.4-.8.5-1.3.4-.6,0-.3-.4-.4-.7,0-.3-.2-.6-.4-.5h0l.2.1Z"/>
  <path d="M25.7,5.62c.6,0,1.4-.7,1.3-1.2,0-.3-.3-.5-.7-.5-.5,0-1.1.6-1.1,1.2,0,.2,0,.6.4.6l.1-.1Z"/>
  <path d="M20.4,14.92c.4-.1.6-.4.7-.8-.4-.1.3-1.2-.7-.8-.5.2-.9.8-1.2,1.3,0,0-.2,0,0,.2.4.2.7.4,1.2.2v-.1Z"/>
  <path d="M40,49.72s.3-.2.1-.3c-.3-.3-.8-.1-1.2-.1-.2,0-.3,0-.5.2h0c0,.3.3.2.5.3-.2.2-.4.2-.5.4,0,0,0,.2.2.2.8.3,1.1-.3,1.5-.7h-.1Z"/>
  <path d="M21.4,13.12c0-.3-.6-.4-.3-.8,0-.1-.3-.5-.6-.5s-.2.2-.2.5c0,1,.6.7,1.2.8h-.1Z"/>
  <path d="M24.3,63.42c-.6-.5-1.3-.3-1.9-.3-.1,0-.2,0-.2.2,0,.1.1.3.2.3.6,0,1.2.4,1.9-.2Z"/>
  <path d="M21.2,6.42c.3-.2.7-.4,1.2-.8-.7-.2-1.2,0-1.6.3-.1.1-.4.3-.3.5s.4.1.7,0Z"/>
  <path d="M11.7,38.22c.1,0,.3-.2.3-.3-.2-.4-.4-.8-.8-1-.2,0-.3,0-.2.3.2.4.3.9.8,1h-.1Z"/>
  <path d="M9.6,35.12h.2c0-.5-.2-.9-.6-1.1h-.2c0,.4.3,1.1.5,1.2l.1-.1Z"/>
  <path d="M26.5,6.52c-.7-.3-1.2-.2-1.4.2.5.2.9-.3,1.4-.2Z"/>
  <path d="M42.2,49.02c-.7-.4-1.1-.4-2.1-.2.7.3,1.3.1,2.1.2Z"/>
  <path d="M42.8,50.02c.4.2.7.2,1.3,0-.6-.2-.9-.2-1.3,0Z"/>
  <path d="M45.2,12.62c-.2,0-.4,0-.3.2,0,.2.2.3.4.4,0,0,.2-.1.3-.2-.1-.2-.2-.3-.4-.4Z"/>
  <path d="M21.5,43.42c.2.2.4.3.6.3,0,0,.1-.2,0-.2-.1-.2-.3-.4-.7-.1h.1Z"/>
  <path d="M38.2,52.12v.2c.2.1.4,0,.5-.2h-.6.1Z"/>
  <path d="M43.2,50.62c.2.1.4,0,.5-.2-.2,0-.4-.2-.6,0v.1l.1.1Z"/>
  <path d="M11.9,42.72c0,.2.1.2.2.3.1,0,.2,0,.3-.2,0,0-.1-.2-.2-.2h-.2l-.1.1Z"/>
  <path d="M22.3,6.92c0-.1,0-.2-.1-.3-.1,0-.2,0-.2.2,0,.1,0,.2.1.2s.2,0,.2-.2v.1Z"/>
  <path d="M23.4,8.82v-.2c-.2,0-.3.1-.5.3.2,0,.4,0,.6-.1h-.1Z"/>
  <path d="M37.2,49.22c0,.2.3.1.6,0-.1-.1-.2-.1-.3-.2-.1,0-.3-.2-.3,0v.2Z"/>
  <path d="M46.6,75.62c-1.3,0-2.6-.3-3.9-.2-1.5.1-2.9,0-4.3-.2-1.7-.3-3.4-.5-5.1-.7-.5,0-1,.2-1.4.1-1.2-.2-2.3,0-3.1,1-1,1.1-2.2,1.1-3.3.5-1.4-.7-2.8-.8-4.3-.7-.5,0-1.2,0-1.5.9,2.2.4,4.2.7,6.3,1,.8.1,1.4.2,1.8,1.1.6,1.2,1.8,1.8,3.1,1.9,1.2,0,2.4-.2,3.6-.3,1,0,2-.2,3-.3,1.3-.2,2.5-.6,3.8-.8,1.3-.2,2.7-.4,4.1-.5.9,0,1.7,0,2.6.1.3,0,.7.2.8,0,.3-.4.8-.8.4-1.4-.6-.8-1.2-1.5-2.4-1.5h-.2Z"/>
  <path d="M118.3,26.32c-2.8,0-4.7.9-5.6,3.5l-9.4,23.9h5.2l2.2-5.5h15l2.1,5.5h5.2l-9.1-23.9c-.9-2.5-2.8-3.5-5.6-3.5ZM112.3,43.72l4.6-11.6c.3-.6.7-.9,1.4-.9s1.1.3,1.3.9l4.4,11.6h-11.7Z"/>
  <path d="M160.8,34.82c0-4.3-2.6-8-8.6-8h-14.6v4.7h14.7c2.6,0,3.7,1.6,3.7,3.5s-1.1,3.7-3.7,3.7h-10.5c-2.9,0-4.2,1.2-4.2,4.3v10.6h4.7v-9.7c0-.5.2-.7.7-.7h7l6.1,10.4h5.2l-6.2-10.7c4.1-1.2,5.7-4.7,5.7-8.1h0Z"/>
  <path d="M165.7,31.52h7.8v22.1h4.7v-22.1h7.8v-4.7h-20.4v4.7h.1Z"/>
  <path d="M196.6,26.82h-4.7v26.8h4.7v-26.8Z"/>
  <path d="M203.6,36.12v17.6h4.7v-10.6h16.2v-4.5h-16.2v-2.5c0-2.5,1.3-4.5,5.5-4.5h10.8v-4.7h-11.1c-7.1,0-9.9,3.9-9.9,9.3v-.1Z"/>
  <path d="M241.9,26.32c-2.8,0-4.7.9-5.6,3.5l-9.4,23.9h5.2l2.2-5.5h15l2.1,5.5h5.2l-9.1-23.9c-.9-2.5-2.8-3.5-5.6-3.5ZM236,43.72l4.6-11.6c.3-.6.7-.9,1.4-.9s1.1.3,1.3.9l4.4,11.6h-11.7Z"/>
  <path d="M259.2,40.32c0,9,4.3,13.4,12.1,13.4h10.4v-4.7h-10.4c-5.2,0-7.4-2.6-7.4-8.7s2.3-8.7,7.4-8.7h10.4v-4.7h-10.4c-7.8,0-12.1,4.4-12.1,13.4Z"/>
  <path d="M286.3,26.82v4.7h7.8v22.1h4.7v-22.1h7.8v-4.7h-20.4.1Z"/>
  <path d="M118.3,26.32c-2.8,0-4.7.9-5.6,3.5l-9.4,23.9h5.2l2.2-5.5h15l2.1,5.5h5.2l-9.1-23.9c-.9-2.5-2.8-3.5-5.6-3.5ZM112.3,43.72l4.6-11.6c.3-.6.7-.9,1.4-.9s1.1.3,1.3.9l4.4,11.6h-11.7Z"/>
  <path d="M160.8,34.82c0-4.3-2.6-8-8.6-8h-14.6v4.7h14.7c2.6,0,3.7,1.6,3.7,3.5s-1.1,3.7-3.7,3.7h-10.5c-2.9,0-4.2,1.2-4.2,4.3v10.6h4.7v-9.7c0-.5.2-.7.7-.7h7l6.1,10.4h5.2l-6.2-10.7c4.1-1.2,5.7-4.7,5.7-8.1h0Z"/>
  <path d="M165.7,31.52h7.8v22.1h4.7v-22.1h7.8v-4.7h-20.4v4.7h.1Z"/>
  <path d="M196.6,26.82h-4.7v26.8h4.7v-26.8Z"/>
  <path d="M203.6,36.12v17.6h4.7v-10.6h16.2v-4.5h-16.2v-2.5c0-2.5,1.3-4.5,5.5-4.5h10.8v-4.7h-11.1c-7.1,0-9.9,3.9-9.9,9.3v-.1Z"/>
  <path d="M241.9,26.32c-2.8,0-4.7.9-5.6,3.5l-9.4,23.9h5.2l2.2-5.5h15l2.1,5.5h5.2l-9.1-23.9c-.9-2.5-2.8-3.5-5.6-3.5ZM236,43.72l4.6-11.6c.3-.6.7-.9,1.4-.9s1.1.3,1.3.9l4.4,11.6h-11.7Z"/>
  <path d="M259.2,40.32c0,9,4.3,13.4,12.1,13.4h10.4v-4.7h-10.4c-5.2,0-7.4-2.6-7.4-8.7s2.3-8.7,7.4-8.7h10.4v-4.7h-10.4c-7.8,0-12.1,4.4-12.1,13.4Z"/>
  <path d="M286.3,31.52h7.8v22.1h4.7v-22.1h7.8v-4.7h-20.4v4.7h.1Z"/>
  <path d="M339.9,37.92h-6.3c-3.1,0-4-1.6-4-3.2s1.1-3.2,3.5-3.2h13.8v-4.7h-13.6c-6,0-8.4,3.3-8.4,7.7s1.7,7.8,8.8,7.8h6.2c3.3,0,4.2,1.6,4.2,3.3s-1.2,3.3-3.7,3.3h-15.1v4.7h15c6.1,0,8.6-3.3,8.6-7.9s-1.7-7.9-9-7.9v.1Z"/>
  <path d="M363.6,38.32l-7.5-11.5h-5.7l10.8,15.3v11.6h4.7v-11.6l10.8-15.3h-5.6l-7.6,11.5h.1Z"/>
  <path d="M394.4,37.92h-6.3c-3.1,0-4-1.6-4-3.2s1.1-3.2,3.5-3.2h13.8v-4.7h-13.6c-6,0-8.4,3.3-8.4,7.7s1.7,7.8,8.8,7.8h6.2c3.3,0,4.2,1.6,4.2,3.3s-1.2,3.3-3.7,3.3h-15.1v4.7h15c6.1,0,8.6-3.3,8.6-7.9s-1.7-7.9-9-7.9v.1Z"/>
  <path d="M406.7,31.52h7.8v22.1h4.7v-22.1h7.8v-4.7h-20.4v4.7h.1Z"/>
  <path d="M437.1,45.62c0-2.2,1.4-3.3,4.1-3.3h13.3v-4.3h-13.2c-2.7,0-4.1-1-4.1-3.2s1.2-3.4,4.1-3.4h13.4v-4.7h-13.4c-6.3,0-9,3-9,7.3s1.3,5,3.8,6c-2.5,1-3.9,3.1-3.9,6.2s2.6,7.3,9,7.3h13.6v-4.7h-13.6c-2.7,0-4.1-1.3-4.1-3.4v.2Z"/>
  <path d="M492.3,26.32c-3.9,0-5.8,1.9-6.6,5.3l-3.8,16.4c-.2,1-.8,1.5-1.8,1.5s-1.6-.6-1.8-1.5l-3.8-16.4c-.8-3.4-2.9-5.3-6.8-5.3s-6.4,2.4-6.4,6v21.3h4.7v-21.1c0-1,.7-1.7,1.9-1.7s1.7.6,1.9,1.4l3.8,16.4c.8,3.5,2.7,5.4,6.5,5.4s5.5-1.9,6.4-5.4l3.9-16.4c.2-.9.8-1.4,1.9-1.4s1.9.7,1.9,1.7v21.1h4.7v-21.3c0-3.6-2.1-6-6.4-6h-.2Z"/>
  <path d="M512.7,37.92c-3.1,0-4-1.6-4-3.2s1.1-3.2,3.5-3.2h13.8v-4.7h-13.6c-6,0-8.4,3.3-8.4,7.7s1.7,7.8,8.8,7.8h6.2c3.3,0,4.2,1.6,4.2,3.3s-1.2,3.3-3.7,3.3h-15.1v4.7h15c6.1,0,8.6-3.3,8.6-7.9s-1.7-7.9-9-7.9h-6.3v.1Z"/>
</svg>